<svg width="462" height="435" viewBox="0 0 462 435" fill="none" xmlns="http://www.w3.org/2000/svg">
<path d="M217.4 262.566C217.181 262.593 216.963 262.606 216.744 262.619C216.744 263.646 216.744 264.673 216.744 265.713C217.069 265.699 217.396 265.686 217.723 265.659C217.616 264.633 217.508 263.606 217.4 262.566ZM245.756 221.086C245.377 220.766 244.999 220.433 244.619 220.113C244.081 220.899 243.544 221.686 243.007 222.473C243.34 222.673 243.889 223.099 243.971 223.033C244.617 222.433 245.173 221.739 245.756 221.086ZM262.481 264.846C261.367 264.193 260.743 263.633 260.047 263.513C259.695 263.459 258.803 264.326 258.867 264.619C259.009 265.286 259.62 266.366 259.995 266.339C260.676 266.313 261.324 265.593 262.481 264.846ZM225.621 250.166C226.231 250.099 226.84 250.033 227.449 249.966C227.251 248.846 227.073 247.699 226.801 246.593C226.784 246.526 225.676 246.606 225.673 246.659C225.607 247.819 225.621 248.993 225.621 250.166ZM198.78 252.339C198.967 252.873 199.155 253.393 199.341 253.913C200.324 253.539 201.307 253.166 202.288 252.779C202.049 252.259 201.676 251.246 201.591 251.273C200.629 251.539 199.711 251.966 198.78 252.339ZM203.147 218.739C203.533 219.073 203.92 219.406 204.307 219.739C205.157 218.779 206.007 217.819 206.857 216.859C206.58 216.579 206.303 216.313 206.025 216.033C205.065 216.939 204.107 217.833 203.147 218.739ZM251.963 276.099C251.896 275.593 251.828 275.086 251.76 274.579C250.347 274.793 248.935 275.006 247.523 275.219C247.588 275.659 247.652 276.086 247.719 276.513C249.133 276.379 250.548 276.246 251.963 276.099ZM283.14 233.539C281.452 232.886 280.164 232.393 278.875 231.899C278.708 232.619 278.189 233.499 278.437 234.006C279.285 235.739 280.524 236.619 283.14 233.539ZM279.227 259.833C282.115 258.379 283.857 257.513 286.277 256.299C282.181 254.619 282.181 254.619 279.227 259.833ZM205.177 266.313C207.815 266.259 208.972 264.779 208.867 262.433C208.837 261.779 207.432 260.579 206.903 260.699C204.701 261.193 204.195 262.939 204.581 265.019C204.617 265.206 204.747 265.379 205.177 266.313ZM260.481 206.579C261.939 203.833 265.595 203.779 264.215 199.593C262.308 200.593 260.663 201.459 259.008 202.326C259.468 203.646 259.732 204.419 260.481 206.579ZM201.315 239.913C203.188 236.393 200.447 234.993 199.775 232.726C196.801 235.433 196.801 235.433 201.315 239.913ZM283.664 240.526C283.815 241.059 283.967 241.593 284.119 242.126C286.079 242.126 288.04 242.126 290.957 242.126C290.057 240.366 289.195 238.206 288.948 238.273C287.119 238.779 285.411 239.726 283.664 240.526ZM235.599 280.593C231.499 276.006 231.499 276.006 229.467 280.953C231.703 280.819 233.651 280.699 235.599 280.593ZM215.769 272.806C215.541 276.953 216.513 277.659 221.679 276.926C221.144 273.366 218.465 273.099 215.769 272.806ZM274.104 254.273C275.493 253.019 276.697 252.459 276.899 251.633C277.191 250.459 277.028 248.979 276.521 247.859C276.263 247.299 274.155 246.873 274.037 247.073C273.413 248.126 272.916 249.379 272.847 250.593C272.795 251.499 273.449 252.459 274.104 254.273ZM255.704 210.473C252.356 210.886 249.255 209.406 248.76 214.273C251.356 213.846 254.249 215.299 255.704 210.473ZM266.555 211.219C261.084 208.313 261.084 208.313 259.328 212.499C261.919 214.659 263.919 213.366 266.555 211.219ZM200.025 213.059C202.111 211.646 203.755 209.899 202.063 207.526C201.584 206.846 198.361 206.953 197.827 207.699C196.18 210.033 197.353 211.926 200.025 213.059ZM247.351 265.179C250.395 265.419 253.147 265.179 252.825 262.046C252.544 259.299 249.971 258.966 246.952 259.713C247.093 261.659 247.223 263.406 247.351 265.179ZM238.816 226.926C235.311 230.419 234.884 231.086 235.839 232.019C237.912 234.059 240.161 233.953 243.496 231.539C241.68 229.753 240.248 228.339 238.816 226.926ZM289.68 220.566C286.708 222.233 284.941 224.366 285.917 228.073C292.26 226.966 293.163 225.139 289.68 220.566ZM243.019 248.673C240.439 247.059 239.221 245.739 237.847 245.553C235.331 245.206 232.491 247.473 232.843 249.126C233.357 251.526 235.371 251.939 237.247 251.553C238.836 251.219 240.26 250.099 243.019 248.673ZM247.901 245.433C252.727 246.459 255.796 245.713 256.243 243.539C256.757 241.019 255.124 239.766 252.208 238.926C250.868 240.953 249.477 243.059 247.901 245.433ZM224.461 214.366C222.769 217.073 219.232 217.259 218.843 220.926C221.699 222.726 224.808 222.819 226.951 220.646C229.143 218.406 226.815 216.539 224.461 214.366ZM237.499 195.086C236.636 196.313 235.401 197.339 235.583 197.939C236.353 200.473 237.544 202.873 239.055 206.446C240.673 202.846 241.659 200.659 242.673 198.406C240.931 197.286 239.528 196.379 237.499 195.086ZM196.6 266.459C199.084 260.353 199.084 260.353 194.037 256.913C190.856 261.899 191.057 262.766 196.6 266.459ZM205.992 251.646C207.773 249.126 209.463 247.699 209.796 245.993C210.201 243.939 208.657 242.313 206.297 242.619C204.127 242.913 201.816 243.859 202.289 246.513C202.557 248.019 204.211 249.286 205.992 251.646ZM194.924 219.473C192.123 220.233 190.577 222.246 190.073 224.726C189.796 226.086 190.765 227.713 191.172 229.219C192.52 228.539 194.379 228.193 195.111 227.099C196.643 224.819 197.395 222.139 194.924 219.473ZM233.813 190.886C233.772 187.459 232.059 186.019 229.524 186.139C227.491 186.246 226.413 187.246 226.392 189.339C226.365 191.939 228.497 194.993 230.161 194.259C231.821 193.539 232.991 191.686 233.813 190.886ZM211.149 252.779C213.716 254.139 215.747 255.219 217.779 256.299C218.46 254.406 219.673 252.513 219.623 250.633C219.592 249.526 217.729 247.819 216.425 247.513C213.296 246.793 213.069 249.846 211.149 252.779ZM248.187 187.099C247.501 186.526 246.348 184.793 244.923 184.526C242.701 184.113 240.432 187.246 240.62 189.846C240.783 192.099 241.983 193.406 244.331 193.219C246.711 193.019 248.328 190.873 248.187 187.099ZM273.135 208.219C272.747 209.993 272.36 211.766 272.068 213.099C275.399 215.979 278.356 218.539 281.585 221.339C282.492 220.059 283.377 218.806 284.571 217.113C278.619 216.459 276.953 211.726 273.135 208.219ZM263.488 240.673C267.712 242.126 271.372 245.353 275.099 240.779C274.053 236.419 271.177 236.539 267.727 236.566C264.893 236.579 263.896 237.433 263.488 240.673ZM245.877 198.859C243.368 201.099 241.78 203.126 243.948 205.739C245.929 208.139 249.405 207.766 254.152 204.699C251.404 202.753 248.883 200.979 245.877 198.859ZM224.413 256.806C222.337 258.406 219.173 259.273 220.488 262.553C221.157 264.219 223.059 265.806 224.773 266.459C225.571 266.766 227.871 265.006 228.408 263.726C229.743 260.566 227.693 258.606 224.413 256.806ZM233.148 268.326C237.84 269.766 240.955 268.686 241.739 265.353C242.329 262.846 240.813 260.926 237.992 260.619C234.616 260.246 233.469 262.073 233.148 268.326ZM260.469 187.686C257.425 187.526 254.447 190.419 254.26 193.806C254.155 195.739 254.855 197.206 257.035 197.339C259.691 197.499 262.936 194.179 263.319 191.019C263.58 188.873 262.541 187.846 260.469 187.686ZM220.151 211.659C217.895 209.566 215.991 207.793 214.143 206.073C209.424 210.273 208.488 212.673 210.501 214.606C212.676 216.686 215.997 215.833 220.151 211.659ZM278.889 197.926C278.908 195.233 277.208 193.646 274.387 193.739C271.757 193.819 268.883 196.726 269.213 199.206C269.563 201.833 271.533 202.593 273.88 202.566C276.948 202.539 278.871 200.713 278.889 197.926ZM283.157 212.366C286.881 212.446 290.323 209.606 289.917 207.366C289.549 205.353 289.004 203.006 286.157 202.953C283.835 202.899 279.247 206.686 279.907 208.406C280.567 210.139 282.347 211.433 283.157 212.366ZM267.317 221.019C265.781 227.099 267.604 229.619 272.892 229.193C276.207 228.926 277.304 226.713 275.549 223.926C273.679 220.953 270.827 220.726 267.317 221.019ZM215.173 190.299C212.276 190.473 210.729 192.339 210.912 195.446C211.084 198.353 213.293 201.006 215.325 200.753C217.353 200.499 219.817 196.966 219.772 194.379C219.728 191.779 217.879 190.139 215.173 190.299ZM243.84 211.793C239.636 212.259 236.707 208.926 233.916 211.819C231.151 214.686 233.136 217.953 234.113 221.206C239.751 221.099 241 216.913 243.84 211.793ZM230.14 233.793C228.863 231.779 228.243 229.633 226.868 228.899C224.665 227.699 223.428 229.953 222.683 231.619C221.751 233.699 221.032 235.966 220.739 238.206C220.617 239.153 221.597 240.726 222.496 241.179C223.364 241.606 225.304 241.393 225.841 240.726C227.475 238.673 228.657 236.273 230.14 233.793ZM265.036 248.046C260.161 249.913 258.247 252.579 258.779 256.046C259.215 258.899 261.952 260.793 264.867 260.259C267.688 259.739 269.195 257.579 268.257 254.566C267.537 252.246 266.112 250.166 265.036 248.046ZM224.888 198.166C219.373 205.433 220.808 202.993 227.741 211.806C229.264 210.446 231.012 209.299 232.195 207.739C234.869 204.193 234.143 202.393 229.967 200.819C228.351 200.206 226.877 199.219 224.888 198.166ZM209.211 221.819C205.912 224.686 203.788 227.659 205.289 231.913C206.431 235.153 209.537 236.633 214.385 236.259C214.932 230.726 213.055 226.153 209.211 221.819ZM189.873 236.526C185.175 240.446 184.027 244.926 186.436 248.846C188.361 251.966 191.26 252.219 193.74 249.499C195.728 247.313 195.889 244.953 194.279 242.539C192.995 240.633 191.555 238.819 189.873 236.526ZM261.148 225.033C261.276 221.913 258.999 219.659 255.549 219.526C251.123 219.339 248.388 221.259 248.169 224.699C247.925 228.553 250.845 232.046 254.321 232.059C257.608 232.073 261.003 228.579 261.148 225.033ZM319.38 336.419C318.953 336.606 318.525 336.793 318.099 336.979C318.323 341.246 318.407 345.513 318.805 349.753C319.315 355.179 318.664 360.446 316.664 365.473C310.164 381.819 299.743 393.553 281.013 395.433C278.26 395.713 275.529 396.313 272.821 396.913C266.529 398.326 260.257 399.819 253.976 401.273C262.92 403.273 271.757 404.219 280.608 405.033C281.832 405.139 283.161 404.739 284.367 404.339C291.061 402.126 297.916 400.273 304.36 397.473C310.181 394.953 316.452 392.259 319.896 386.593C327.813 373.593 328.336 359.486 324.248 345.153C323.357 342.033 321.04 339.313 319.38 336.419ZM312.237 96.4993C315.251 94.0193 318.047 91.4726 321.093 89.2726C324.229 87.0059 325.047 84.0192 323.509 80.8459C321.667 77.0459 319.813 72.8192 316.775 70.1125C305.059 59.6592 291.712 52.4726 275.587 51.1926C268.165 50.5926 260.815 49.0592 253.451 47.8459C250.76 47.4059 248.119 46.6726 245.361 46.0593C245.361 46.9526 245.212 47.4459 245.389 47.7393C245.937 48.6459 246.528 49.5526 247.247 50.326C252.235 55.7126 258.337 58.846 265.671 59.7926C270.751 60.4593 275.955 61.0326 280.779 62.6326C297.148 68.0459 309.141 77.8459 312.237 96.4993ZM418.988 166.086C423.928 175.686 428.396 184.593 428.611 195.033C428.829 205.606 425.531 215.073 420.199 224.366C426.215 226.273 431.519 227.939 436.823 229.619C436.704 230.073 436.585 230.526 436.467 230.979C432.752 230.579 429.036 230.166 424.237 229.633C426.392 232.966 428.088 235.353 429.553 237.886C434.493 246.419 436.407 255.006 432.219 264.739C428.775 272.753 426.416 281.273 424.067 289.699C420.933 300.939 415.629 310.153 404.28 314.966C400.911 316.393 397.811 318.619 395.205 321.739C409.147 327.886 425.203 323.739 433.091 312.193C429.7 311.459 426.452 310.753 423.201 310.046C423.255 309.619 423.307 309.193 423.36 308.766C426.507 308.646 429.656 308.379 432.799 308.446C436.125 308.513 438.38 307.286 440.127 304.366C443.635 298.499 447.481 292.833 451.091 287.019C451.921 285.673 452.356 284.086 452.979 282.606C448.765 281.113 445.057 279.793 441.347 278.473C441.443 278.113 441.537 277.753 441.632 277.406C445.985 277.726 450.337 278.046 455.233 278.419C455.405 272.913 455.452 268.033 455.729 263.179C456.543 248.913 458.8 234.726 457.457 220.366C456.901 214.419 456.237 208.553 454.381 202.953C450.32 201.739 446.188 203.633 441.205 200.979C446.219 200.366 449.712 199.939 453.149 199.526C452.644 188.726 430.192 166.379 418.988 166.086ZM329.235 84.486C331.595 83.806 332.599 83.5526 333.579 83.2193C351.355 77.3127 366.916 79.7393 378.825 95.4326C383.977 102.219 390.525 108.513 393.615 116.166C398.785 128.979 407.856 139.526 412.779 152.313C412.889 152.606 413.436 152.726 414.484 153.326C415.203 147.793 415.883 142.566 416.585 137.153C414.767 137.326 413.808 137.419 412.364 137.566C414.041 134.633 417.356 133.219 416.447 129.153C413.336 115.219 408.569 102.099 399.851 90.6326C399.628 90.3393 399.141 90.2459 398.544 89.9392C397.296 90.6459 395.927 91.4193 393.624 92.7393C395.081 89.9392 396.019 88.1393 397.105 86.0593C391.78 81.126 387.173 75.5392 380.62 72.7792C370.429 68.4859 361.227 62.9926 353.536 54.9659C351.419 52.7526 348.603 51.2059 346.299 49.4993C343.667 51.5126 341.723 53.006 339.779 54.4993C339.571 54.2993 339.364 54.1125 339.156 53.9126C340.445 51.8859 341.735 49.8726 343.288 47.4326C332.565 40.4193 321.972 34.3926 309.068 33.4726C297.839 32.6592 288.596 36.6727 280.508 44.0193C279.528 44.9127 278.937 46.2326 277.865 47.7926C290.368 49.8993 300.708 55.1393 310.452 61.9527C317.933 67.1927 323.551 73.4859 325.535 82.6059C325.576 82.7926 326.205 82.846 326.628 82.9926C328.352 80.846 330.092 78.6859 331.832 76.5392C332.121 76.7393 332.411 76.9393 332.7 77.1526C331.732 79.206 330.764 81.246 329.235 84.486ZM152.141 375.939C147.472 367.353 143.035 359.179 138.365 350.593C132.564 358.686 126.856 366.659 121.148 374.633C122.568 365.659 128.02 358.739 132.371 351.339C116.212 347.899 99.6494 347.219 90.0668 331.819C79.6774 337.926 77.3348 352.766 82.0281 362.966C89.4068 378.993 100.725 391.926 113.421 403.819C115.265 405.553 117.548 406.873 119.783 408.113C127.156 412.193 135.133 414.393 143.427 415.753C149.513 416.766 155.699 417.766 161.508 419.739C174.404 424.126 187.411 425.486 200.585 421.993C207.56 420.153 214.28 417.299 221.04 414.699C224.313 413.446 225.475 410.606 226.005 406.713C217.863 407.033 211.624 403.473 205.413 399.539C202.837 397.913 199.624 397.299 196.317 396.073C195.305 399.313 194.544 401.739 193.387 405.446C193.041 401.286 192.813 398.553 192.573 395.646C179.624 390.686 165.327 388.833 155.317 376.859C153.368 381.273 151.811 384.806 150.253 388.353C149.832 388.206 149.412 388.073 148.992 387.926C150.107 383.686 151.221 379.446 152.141 375.939ZM234.697 407.406C235.216 409.459 235.395 411.099 236.032 412.539C240.361 422.326 247.891 428.206 258.468 429.539C265.868 430.473 273.368 430.899 280.831 430.979C286.147 431.033 291.471 429.819 296.8 429.739C311.5 429.539 324.22 423.713 336.335 416.206C343.056 412.033 349.519 407.459 356.06 403.006C358.533 401.313 360.864 399.419 363.323 397.726C366.289 395.659 366.857 393.273 365.097 390.033C363.743 387.526 362.875 384.766 361.791 382.126C362.204 381.913 362.617 381.699 363.032 381.499C365.007 384.779 366.983 388.059 369.261 391.833C373.791 387.059 377.916 383.273 381.336 378.939C384.625 374.766 387.051 369.913 390.095 365.526C396.096 356.886 397.085 347.299 395.593 337.286C394.957 333.019 393.235 329.113 389.115 326.393C385.021 329.779 380.972 333.126 376.709 336.646C378.999 340.499 381.183 344.166 383.367 347.846C382.933 348.139 382.501 348.433 382.068 348.726C378.892 345.353 375.716 341.993 372.361 338.433C371.444 338.606 370.417 338.819 369.384 339.006C356.396 341.339 344.3 348.233 329.889 345.913C334.059 352.419 337.743 358.166 341.427 363.913C341.047 364.153 340.668 364.406 340.288 364.659C336.963 360.366 333.639 356.073 330.267 351.726C329.793 352.286 329.589 352.419 329.573 352.566C329.508 353.193 329.387 353.859 329.487 354.473C331.105 364.433 329.927 374.006 326.128 383.406C325.285 385.499 325.847 388.446 326.516 390.793C327.647 394.739 329.38 398.513 330.86 402.353C330.475 402.553 330.091 402.753 329.707 402.953C327.233 399.139 324.761 395.313 321.979 391.019C310.756 402.206 295.747 405.313 282.133 410.953C281.836 414.779 284.643 417.886 283.323 422.793C281.468 419.899 279.892 418.113 279.075 416.019C277.241 411.353 273.757 409.966 269.105 409.646C259.292 408.966 249.504 407.939 239.699 407.126C238.289 407.006 236.848 407.273 234.697 407.406ZM99.8308 45.0593C97.0308 46.7393 94.6188 48.0326 92.3587 49.5659C87.2268 53.0459 82.4081 57.0459 77.0161 60.0459C71.6548 63.0192 69.7534 67.1926 69.3721 72.9926C68.5068 86.206 67.2188 99.3925 66.1148 112.579C65.7721 116.673 66.2228 120.579 69.4134 124.953C71.4428 115.219 75.8121 107.766 82.1561 101.459C83.9508 99.686 83.5881 97.6726 82.8108 95.526C81.8841 92.966 81.1841 90.3259 80.3868 87.7126C80.7574 87.5792 81.1294 87.4459 81.5014 87.3126C83.2334 90.1659 84.9668 93.0193 86.9388 96.2726C107.556 85.2859 127.139 72.0193 152.531 72.6059C150.611 62.8593 148.859 53.9526 147.107 45.0593C147.524 44.926 147.941 44.7925 148.357 44.6459C152.017 51.6192 153.669 59.4192 156.888 68.5125C157.663 66.6725 157.877 66.0593 158.173 65.486C165.407 51.3393 176.031 40.0459 187.881 29.7126C188.932 28.8059 189.3 26.8726 189.557 25.3393C189.903 23.2726 188.635 20.8593 191.011 18.7926C192.161 21.7393 193.145 24.2593 193.855 26.086C202.993 27.2593 211.664 27.5126 219.84 29.6593C227.909 31.7793 235.48 35.7925 243.581 39.1125C243.98 35.7925 244.06 32.7792 244.767 29.9392C245.397 27.3926 244.747 24.1926 247.747 21.9392C247.747 28.9126 247.747 35.2593 247.747 41.9926C252.596 43.326 257.296 44.6859 262.032 45.9126C270.753 48.1659 275.101 48.9393 272.4 35.7527C269.928 23.6727 263.471 15.3792 252.58 9.84589C241.591 4.27255 230.503 2.67264 218.46 5.92596C205.895 9.32596 193.188 12.286 180.431 14.886C168.243 17.366 156.351 20.3659 145.063 25.8459C135.483 30.4992 125.472 34.2726 115.655 38.4326C111.779 40.0859 107.909 41.7393 103.661 43.5527C104.812 47.4727 105.729 50.726 106.729 53.9527C109.043 61.4193 109.06 61.4193 108.293 64.1526C103.919 58.6327 103.58 51.6593 99.8308 45.0593ZM63.7308 203.086C62.3548 210.673 60.8401 216.899 60.1734 223.219C59.3934 230.579 62.1441 234.153 69.3668 236.499C73.5774 237.859 77.8348 239.086 82.0708 240.366C81.9748 240.766 81.8761 241.153 81.7801 241.553C75.3294 239.979 68.8788 238.406 61.6748 236.646C63.4534 249.593 66.4374 261.619 70.4254 273.766C82.1748 271.379 92.4174 265.939 103.949 265.539C93.0908 269.259 82.2308 272.979 71.4094 276.686C71.4094 277.939 71.2521 278.806 71.4334 279.606C73.3188 287.939 75.2734 296.259 77.1801 304.593C78.7228 311.326 83.4468 315.953 87.8028 321.686C95.7721 316.419 103.292 311.459 110.812 306.486C111.167 306.966 111.523 307.446 111.877 307.913C105.537 313.393 99.1988 318.859 92.9281 324.286C92.9281 325.033 92.6868 325.819 92.9654 326.286C96.3361 332.006 99.7854 337.659 106.74 339.739C112.259 341.393 117.697 343.366 123.287 344.726C128.024 345.873 132.847 345.499 138.147 343.886C135.591 329.073 140.903 317.046 148.183 304.886C153.411 296.139 159.741 290.646 169.049 287.339C176.667 284.633 183.948 280.953 191.293 277.526C193.915 276.313 196.507 274.753 197.351 271.406C190.228 269.379 187.781 264.499 188.497 257.726C184.019 258.579 185.063 254.326 183.456 252.673C181.867 251.046 181.261 248.113 180.951 245.659C180.627 243.099 181.169 240.433 181.352 237.499C165.681 242.699 150.596 247.699 135.509 252.699C135.376 252.286 135.243 251.886 135.109 251.473C151.033 243.046 168.811 239.486 185.34 232.753C185.02 229.419 184.701 226.086 184.385 222.779C183.957 222.619 183.539 222.299 183.181 222.353C172.067 224.166 161.195 223.513 150.215 220.659C141.647 218.433 133.617 215.273 125.757 211.326C115.267 206.059 104.617 201.126 94.0121 196.086C92.8708 195.539 91.5841 195.286 90.3441 194.993C84.4414 193.553 78.5321 192.139 71.6227 190.486C69.9694 192.886 67.7588 196.099 65.1201 199.926C69.4334 202.379 72.7454 204.806 76.4414 206.233C85.9908 209.939 95.7188 213.193 105.355 216.673C107.772 217.553 110.115 218.633 112.491 219.619C112.292 220.086 112.093 220.539 111.896 221.006C95.6881 216.913 79.7948 211.899 63.7308 203.086ZM295.951 231.193C296.323 239.419 301.295 242.059 307.439 243.833C314.579 245.913 321.603 248.393 328.677 250.686C317.951 250.433 307.991 246.739 297.313 243.619C296.831 245.779 295.851 247.526 296.228 248.913C298.057 255.579 294.451 259.433 289.623 262.819C288.447 263.646 287.273 264.473 285.881 265.446C289.669 271.553 295.301 274.699 301.307 276.819C312.183 280.659 323.263 283.926 334.269 287.393C336.479 288.086 338.741 288.606 340.98 289.206C339.064 289.926 337.319 290.086 335.728 289.659C324.388 286.606 312.992 283.726 301.793 280.219C294.571 277.953 288.245 273.886 283.591 267.619C283.173 267.059 282.281 266.859 281.344 266.339C280.697 268.379 280.556 270.233 279.623 271.499C276.915 275.193 278.317 278.539 280.372 281.566C282.396 284.553 284.897 287.259 287.469 289.806C295.404 297.673 302.319 306.299 308.548 315.593C313.536 323.033 319.364 329.899 324.784 337.059C329.701 343.553 336.08 344.953 343.629 342.713C351.42 340.406 359.267 338.299 367.028 335.913C369.516 335.139 371.811 333.739 375.333 332.099C362.715 328.099 351.016 326.259 340.799 320.139C341.885 319.939 342.851 320.153 343.807 320.406C353.924 323.139 364.025 325.926 374.173 328.526C375.925 328.979 378.536 329.433 379.625 328.539C384.971 324.113 389.937 319.233 395.737 313.859C383.571 312.219 372.448 310.619 362.144 305.806C363.681 305.566 365.125 305.779 366.571 305.966C376.532 307.259 386.481 308.686 396.461 309.819C403.893 310.659 409.248 306.953 413.056 300.993C414.757 298.326 415.957 295.259 416.915 292.219C420.189 281.833 423.267 271.366 426.369 260.926C426.521 260.406 426.204 259.766 426.16 259.499C413.329 258.473 400.731 257.459 388.132 256.446C401.224 254.233 414.433 256.513 427.684 254.473C427.501 248.859 425.596 244.726 423.124 240.633C413.592 224.886 398.303 218.353 381.387 214.686C377.535 213.846 373.227 214.179 369.285 214.873C362.348 216.099 355.393 217.579 348.693 219.713C337.7 223.246 326.52 224.113 315.107 223.713C310.015 223.526 304.911 223.673 299.673 223.673C298.403 226.246 297.088 228.899 295.951 231.193ZM409.741 164.206C404.863 154.326 402.86 144.206 395.94 136.459C395.244 135.686 394.841 134.633 394.339 133.686C389.609 124.833 384.925 115.953 380.127 107.126C379.26 105.526 377.924 104.193 376.452 102.273C373.235 104.659 370.503 106.646 367.824 108.686C364.091 111.539 360.544 114.673 356.649 117.273C350.984 121.073 348.149 122.059 345.149 122.459C354.645 115.273 364.969 107.459 376.172 98.9792C371.284 95.5125 367.103 92.2726 362.647 89.4726C357.101 85.9792 350.961 83.8992 344.343 84.7792C335.304 85.9926 326.787 88.8059 320.029 95.3126C316.025 99.1526 312.2 103.206 308.507 107.353C302.82 113.753 297.845 120.873 291.605 126.646C282.805 134.793 276.123 144.206 270.612 154.699C266.209 163.086 260.712 170.699 253.416 176.886C252.875 177.353 252.673 178.206 252.227 179.046C256.109 179.393 255.98 179.246 267.073 169.353C271.832 165.099 277.253 161.593 282.379 157.766C287.208 154.153 292.047 150.553 296.88 146.939C296.147 149.273 294.855 151.179 293.136 152.526C289.452 155.446 285.439 157.926 281.753 160.833C273.431 167.406 265.227 174.113 256.416 181.219C266.555 182.579 266.555 182.579 269.909 188.766C276.119 185.233 280.892 187.753 285.039 193.073C294.647 189.019 304.192 185.339 312.896 179.793C324.961 172.086 337.079 164.473 349.215 156.886C351.016 155.766 352.853 154.113 356.625 155.739C334.895 169.779 314.029 183.259 292.832 196.953C298.505 201.166 296.404 206.993 294.336 213.353C301.843 210.553 308.383 207.979 315.019 205.659C326.08 201.819 331.243 200.953 336.327 202.446C328.663 204.686 322.193 206.526 315.756 208.473C309.139 210.473 302.552 212.579 295.081 214.899C296.755 215.633 297.495 216.193 298.268 216.246C313.851 217.286 329.404 218.486 344.723 213.699C352.257 211.353 360.016 209.699 367.708 207.873C374.073 206.353 380.547 206.486 386.756 208.353C392.663 210.126 398.412 212.499 404.096 214.913C407.98 216.579 411.635 218.766 415.297 220.673C427.436 206.246 424.225 183.713 410.009 166.739C399.411 172.539 388.833 178.539 378.053 184.139C371.827 187.393 365.303 190.059 358.851 192.859C357.313 193.513 355.54 193.659 353.861 193.966C352.237 194.273 350.595 194.459 348.845 194.713C359.101 189.726 369.107 184.979 379.009 180.019C389.091 174.966 399.069 169.713 409.741 164.206ZM190.499 78.9792C188.429 64.8459 191.807 50.7126 189.911 35.0459C185.312 39.8859 181.939 43.6992 178.276 47.2059C174.813 50.5126 173.204 54.2059 173.429 59.1125C173.779 66.7526 173.521 74.4326 173.521 82.086C173.249 82.0993 172.976 82.1125 172.703 82.1125C172.412 73.6326 172.12 65.1526 171.829 56.6726C171.359 56.5926 170.888 56.5259 170.417 56.4459C164.485 65.5125 159.179 74.9126 155.968 85.3926C153.695 92.8326 152.181 100.433 153.299 108.179C155.081 120.526 158.267 132.619 164.891 143.286C171.425 153.806 178.784 163.833 185.919 173.979C188.961 178.299 192.857 181.819 198.264 184.166C195.795 176.886 193.325 169.606 190.856 162.326C191.264 162.179 191.673 162.019 192.081 161.859C194.648 167.699 197.368 173.459 199.74 179.366C202.145 185.353 202.672 192.059 206.329 197.739C207.228 190.326 209.439 184.419 218.28 183.886C222.943 159.753 221.764 135.273 225.899 111.353C226.268 123.766 226.247 136.166 225.411 148.513C224.585 160.713 222.937 172.846 221.651 185.019C224.515 182.353 227.127 180.179 231.029 179.779C232.065 179.673 233.264 178.006 233.797 176.779C234.736 174.646 235.145 172.286 235.908 170.059C238.284 163.139 240.723 156.233 243.136 149.326C244.076 150.886 243.976 152.139 243.629 153.313C241.224 161.526 238.772 169.713 236.32 177.913C235.84 179.513 234.8 181.193 237.083 182.246C241.179 179.166 245.592 176.486 249.22 172.993C254.267 168.139 259.096 162.939 263.323 157.366C266.917 152.619 269.384 147.046 272.623 142.006C274.925 138.433 277.444 134.939 280.284 131.779C288.285 122.886 296.579 114.246 304.611 105.366C309.951 99.4726 310.675 92.7527 306.385 85.9527C299.607 75.1927 290.207 67.8459 277.435 65.4326C268.693 63.7793 259.937 62.1926 250.584 60.4726C248.932 66.8593 246.667 73.606 241.625 78.9527C242.515 74.766 243.58 70.6592 245.241 66.8059C247.984 60.4593 247.052 55.806 241.912 50.486C230.108 38.2593 215.661 33.406 199.368 32.486C197.396 32.366 195.368 33.2726 193.824 33.6059C192.677 49.2326 191.588 64.1125 190.499 78.9792ZM209.815 273.486C204.857 272.313 201.591 273.873 198.76 276.859C197.443 278.259 195.812 279.353 194.473 280.726C186.528 288.913 177.5 294.979 165.816 296.473C161.313 297.046 158.115 299.926 155.957 303.939C153.631 308.273 150.992 312.446 148.937 316.899C147.345 320.353 145.861 324.033 145.335 327.753C142.979 344.393 149.867 358.593 157.929 373.393C159.619 370.633 160.907 368.473 162.255 366.353C163.499 364.393 164.807 362.459 166.087 360.526C166.443 360.779 166.8 361.019 167.156 361.273C164.717 366.179 162.279 371.086 159.845 375.979C165.243 381.899 172.267 382.926 179.161 384.419C183.713 385.406 188.231 386.673 192.633 388.193C198.841 390.339 204.928 392.833 211.299 395.273C215.051 386.126 212.637 376.673 214.836 367.859C217.041 377.153 216.253 386.433 214.969 395.659C226.031 399.046 236.625 400.433 247.3 398.513C259.704 396.286 271.981 393.353 284.301 390.659C285.051 390.499 285.68 389.779 286.499 389.233C284.26 377.846 279.805 367.006 280.316 355.206C283.42 366.259 286.524 377.326 289.913 389.393C293.297 387.446 296.475 386.179 298.964 384.086C312.232 372.966 318.268 351.779 312.101 335.513C308.012 324.726 302.019 314.926 294.328 306.006C286.44 296.846 276.119 289.659 271.247 277.979C270.168 277.979 269.333 277.993 268.499 277.979C260.369 277.899 257.876 280.379 258.035 288.566C258.191 296.553 259.456 304.326 262.729 311.686C265.341 317.539 268.035 323.366 270.64 329.233C271.264 330.633 271.68 332.139 272.191 333.593C261.608 318.766 254.081 302.966 256.005 283.593C252.285 284.139 249.444 284.553 246.889 284.913C243.016 295.406 242.256 305.553 243.584 315.886C244.511 323.086 245.511 330.299 246.624 337.486C247.859 345.446 249.259 353.379 250.587 361.339C246.069 353.846 244.163 345.553 242.764 337.179C241.32 328.553 239.675 319.833 239.496 311.126C239.325 302.806 240.928 294.459 241.775 285.913C235.471 288.299 229.123 288.859 222.963 284.593C221.829 287.793 221.001 290.433 219.956 292.993C218.905 295.566 217.732 298.086 216.437 300.553C215.263 302.766 214.061 305.046 211.919 306.526C215.021 299.006 219.32 292.113 220.456 283.886C215.005 281.913 210.445 279.606 209.815 273.486ZM114.588 187.379C113.117 186.553 111.56 185.833 110.189 184.859C99.1121 176.979 88.0681 169.059 75.8854 160.339C75.3681 165.219 74.7574 168.753 74.7294 172.299C74.7174 173.819 75.5107 175.793 76.6254 176.819C83.2254 182.833 89.4094 189.259 98.1988 192.566C106.775 195.793 115.297 199.513 123.175 204.153C133.428 210.193 143.995 214.833 155.668 217.259C165.612 219.326 175.481 219.966 185.435 217.873C186.82 217.579 188.024 216.419 190.415 215.019C181.052 207.819 172.728 201.406 164.404 195.006C165.867 194.593 166.749 194.993 167.512 195.566C174.195 200.553 180.845 205.579 187.533 210.553C188.961 211.619 190.131 213.619 192.735 212.099C192.056 206.459 194.452 201.899 199.413 197.873C196.5 193.939 194.248 189.633 190.867 186.593C184.737 181.073 179.828 174.713 175.28 167.953C172.059 163.179 168.652 158.513 165.453 153.699C151.339 132.513 142.893 110.086 150.253 84.1526C151.724 78.9793 149.923 76.8726 144.625 76.9659C142.857 77.006 141.1 77.6859 139.152 78.1125C140.111 81.9525 140.881 85.0459 141.651 88.1393C141.268 88.2592 140.885 88.3792 140.503 88.5125C138.609 85.5259 136.715 82.5393 134.64 79.2593C126.899 82.6326 119.299 85.0993 112.96 88.7659C121.869 102.593 130.184 115.766 138.804 128.726C142.101 133.686 146.104 138.179 149.768 142.899C150.807 144.233 151.787 145.619 152.795 146.979C151.221 147.113 150.556 146.646 149.968 146.086C143.076 139.553 138.033 131.633 132.809 123.779C126.548 114.366 119.668 105.353 112.916 96.286C111.588 94.4993 109.624 93.1926 107.948 91.6459C102.544 95.0859 97.3881 97.8059 92.9001 101.366C86.2681 106.619 81.2654 113.219 79.2054 121.713C78.3747 125.139 78.8428 128.033 81.6001 130.419C86.2828 134.473 90.6761 138.913 95.6508 142.553C105.125 149.513 114.949 155.993 124.568 162.753C126.652 164.219 128.599 165.939 130.367 167.766C131.051 168.473 131.063 169.833 131.38 170.899C131.048 171.153 130.716 171.419 130.384 171.686C112.845 159.046 95.3068 146.406 77.1654 133.326C76.8428 137.033 76.7774 140.819 76.1401 144.499C74.7961 152.259 78.6308 157.579 84.0148 162.246C85.3014 163.366 86.8734 164.139 88.1934 165.219C97.0908 172.499 105.957 179.806 114.833 187.113L114.588 187.379ZM7.44036 225.059C6.39303 231.126 6.42783 237.606 8.47263 244.233C11.9764 255.606 13.1668 267.646 18.8868 278.393C23.0028 286.126 25.9908 294.473 30.3294 302.059C40.1921 319.313 55.4974 326.966 75.2374 325.766C77.4534 325.633 79.6214 324.673 82.7921 323.833C80.1948 320.353 78.7001 316.833 76.0468 315.233C73.4988 313.699 69.7494 314.153 65.7281 313.619C68.5801 312.059 70.8721 310.793 73.1614 309.539C72.4428 306.273 71.7974 303.353 71.1601 300.433C70.5348 297.579 69.9201 294.713 69.2348 291.553C62.5988 292.299 56.5388 292.979 49.2081 293.793C55.2801 288.566 62.3801 289.766 68.0148 286.753C65.3054 275.246 62.3174 264.086 60.1294 252.779C58.2668 243.139 56.0601 233.313 56.2881 223.619C56.5868 210.979 59.6561 198.579 68.3334 188.459C68.8254 187.886 68.9627 187.006 69.4881 185.726C62.8734 181.393 54.9814 184.739 46.9748 181.099C50.8441 180.766 53.2534 180.486 55.6694 180.393C58.1694 180.286 60.6774 180.366 63.4388 180.366C63.4388 174.099 63.4388 168.619 63.4388 162.819C62.4681 162.379 61.3108 161.899 60.1948 161.326C59.2601 160.846 58.3734 160.273 57.4654 159.753C57.5721 159.579 57.6788 159.393 57.7854 159.219C59.8361 159.526 61.8854 159.833 64.3414 160.206C66.3148 153.779 65.4361 147.473 65.9521 141.513C59.1428 137.899 52.7534 137.686 46.9068 141.153C40.6974 144.846 34.8681 149.246 29.2001 153.753C27.1414 155.393 25.7254 158.073 24.5401 160.526C21.1654 167.526 19.2614 174.979 18.5868 182.726C17.5001 195.153 15.5148 207.339 9.50183 218.526C8.8701 219.699 8.81956 221.193 8.43303 222.806C11.9164 223.073 14.8854 223.299 17.8534 223.526C17.8388 223.686 17.8241 223.859 17.8094 224.019C14.4481 224.353 11.0862 224.699 7.44036 225.059ZM399.421 327.633C399.917 329.446 400.387 331.019 400.772 332.606C403.724 344.779 402.248 356.099 395.868 367.166C388.908 379.233 379.395 388.939 369.616 398.526C368.701 399.419 367.797 400.379 366.735 401.073C351.196 411.219 336.469 422.686 318.827 429.353C311.253 432.219 303.431 432.686 295.577 433.499C283.203 434.779 270.887 435.313 258.509 433.126C247.989 431.259 239.587 426.673 234.367 417.046C233.975 416.326 233.372 415.713 232.796 414.966C230.089 417.193 227.776 419.713 224.933 421.259C221.981 422.873 218.501 423.499 215.284 424.646C211.465 426.019 207.779 427.873 203.867 428.819C189.124 432.393 174.631 431.219 160.315 426.233C155.305 424.486 150.073 423.206 144.843 422.313C136.143 420.806 127.691 418.619 119.793 414.646C113.617 411.539 108.172 407.446 103.959 401.846C102.676 400.139 101.368 398.393 99.7734 396.993C90.3254 388.766 84.9628 377.753 79.2681 366.979C74.9241 358.766 74.4081 350.126 77.7907 341.539C79.2374 337.873 81.8721 334.673 84.0521 331.113C79.4081 331.593 74.7228 332.446 70.0321 332.486C47.9748 332.659 32.8401 321.593 23.1468 302.526C18.5988 293.579 14.6828 284.286 10.7821 275.033C9.13517 271.126 8.15343 266.913 7.07636 262.779C5.89036 258.246 4.6565 253.673 3.95343 249.046C2.70596 240.819 1.6821 232.553 0.927299 224.273C0.725832 222.059 1.47117 219.553 2.40183 217.459C7.86383 205.166 9.07583 191.859 11.7825 178.913C11.8701 178.499 11.8748 178.073 11.9221 177.646C14.1494 157.486 25.8814 144.326 43.0654 135.046C49.2068 131.739 55.2201 131.486 61.4561 134.539C62.9241 135.259 64.5108 135.739 67.0948 136.739C65.4521 132.513 64.3254 129.153 62.8628 125.953C60.5654 120.926 60.0881 115.793 60.5881 110.313C61.6761 98.4059 62.3988 86.4593 63.3188 74.526C63.5161 71.9793 63.9281 69.4326 64.2334 66.886C64.7294 62.7793 66.9454 59.8593 70.3121 57.5527C87.0828 46.006 104.231 35.3393 124.144 29.726C130.641 27.886 136.748 24.4326 142.773 21.2193C153.319 15.606 164.783 13.0726 176.263 10.5392C189.611 7.59259 203.125 5.29932 216.323 1.79263C231.737 -2.28735 245.444 0.779236 258.519 9.13925C267.091 14.6326 272.592 22.0859 274.499 32.1393C274.968 34.6193 275.619 37.0726 276.34 40.1926C278.127 39.0193 279.497 38.2059 280.78 37.2726C290.015 30.5392 300.175 28.1393 311.631 29.2326C330.823 31.0726 346.809 39.4593 360.663 52.2059C367.257 58.2726 374.576 62.8593 382.761 66.126C389.133 68.6726 394.4 72.646 398.459 77.9527C409.653 92.606 417.66 108.779 420.452 127.219C421.851 136.459 420.757 145.513 418.376 154.473C417.844 156.473 417.269 158.459 416.623 160.779C432.332 161.899 440.301 173.579 449.809 182.793C459.496 192.193 459.972 205.046 461.328 217.286C462.172 224.913 462.076 232.686 461.817 240.366C461.604 246.739 460.449 253.073 459.879 259.446C459.499 263.686 459.645 267.993 459.127 272.219C458.639 276.206 458.401 280.526 456.636 283.979C450.493 295.979 443.255 307.299 434.076 317.353C427.691 324.339 419.777 327.179 410.696 327.606C407.099 327.766 403.488 327.633 399.421 327.633Z" fill="url(#paint0_linear_342_740)" fill-opacity="0.3"/>
<path d="M275.564 103.819C281.568 89.4993 288.528 77.6593 292.532 74.6059C291.988 79.9793 282.56 96.6327 275.564 103.819Z" fill="url(#paint1_linear_342_740)" fill-opacity="0.3"/>
<path d="M114.833 187.113C117.129 188.793 119.425 190.473 121.721 192.153C121.457 192.486 121.193 192.833 120.929 193.166C118.416 191.766 116.157 190.019 114.589 187.379C114.588 187.379 114.833 187.113 114.833 187.113Z" fill="url(#paint2_linear_342_740)" fill-opacity="0.3"/>
<path d="M125.42 195.246C126.557 196.019 127.695 196.779 128.832 197.553C128.696 197.793 128.559 198.046 128.424 198.299C127.195 197.593 125.965 196.899 124.736 196.206C124.964 195.886 125.192 195.566 125.42 195.246Z" fill="url(#paint3_linear_342_740)" fill-opacity="0.3"/>
<path d="M18.4961 275.233C23.5041 271.939 30.7574 270.979 40.9228 272.566C32.7788 274.059 25.6521 275.379 18.5254 276.686C18.5148 276.206 18.5054 275.713 18.4961 275.233Z" fill="url(#paint4_linear_342_740)" fill-opacity="0.3"/>
<defs>
<linearGradient id="paint0_linear_342_740" x1="231.447" y1="434.613" x2="231.447" y2="-3.05176e-05" gradientUnits="userSpaceOnUse">
<stop stop-color="#888888"/>
<stop offset="1" stop-color="#888888" stop-opacity="0"/>
</linearGradient>
<linearGradient id="paint1_linear_342_740" x1="284.048" y1="103.819" x2="284.048" y2="74.6059" gradientUnits="userSpaceOnUse">
<stop stop-color="#888888"/>
<stop offset="1" stop-color="#888888" stop-opacity="0"/>
</linearGradient>
<linearGradient id="paint2_linear_342_740" x1="118.155" y1="193.166" x2="118.155" y2="187.113" gradientUnits="userSpaceOnUse">
<stop stop-color="#888888"/>
<stop offset="1" stop-color="#888888" stop-opacity="0"/>
</linearGradient>
<linearGradient id="paint3_linear_342_740" x1="126.784" y1="198.299" x2="126.784" y2="195.246" gradientUnits="userSpaceOnUse">
<stop stop-color="#888888"/>
<stop offset="1" stop-color="#888888" stop-opacity="0"/>
</linearGradient>
<linearGradient id="paint4_linear_342_740" x1="29.7094" y1="276.686" x2="29.7094" y2="271.818" gradientUnits="userSpaceOnUse">
<stop stop-color="#888888"/>
<stop offset="1" stop-color="#888888" stop-opacity="0"/>
</linearGradient>
</defs>
</svg>
