<?xml version="1.0" standalone="no"?>
<!DOCTYPE svg PUBLIC "-//W3C//DTD SVG 20010904//EN"
 "http://www.w3.org/TR/2001/REC-SVG-20010904/DTD/svg10.dtd">
<svg version="1.0" xmlns="http://www.w3.org/2000/svg"
 width="1058.000000pt" height="1058.000000pt" viewBox="0 0 1058.000000 1058.000000"
 preserveAspectRatio="xMidYMid meet">
<metadata>
Created by potrace 1.14, written by Peter Selinger 2001-2017
</metadata>
<g transform="translate(0.000000,1058.000000) scale(0.100000,-0.100000)"
fill="#000000" stroke="none">
<path d="M5169 10363 c-68 -119 -136 -237 -151 -262 -15 -25 -33 -57 -41 -71
-7 -14 -23 -41 -34 -60 -41 -70 -312 -540 -424 -734 -67 -117 -122 -202 -134
-206 -11 -5 -87 -29 -170 -53 -157 -47 -248 -78 -302 -103 -17 -7 -34 -14 -38
-14 -31 0 -415 -196 -540 -275 -303 -192 -460 -318 -705 -565 -239 -242 -365
-402 -565 -725 -108 -174 -247 -479 -327 -720 -45 -135 -114 -396 -124 -471
-3 -27 -8 -52 -10 -55 -2 -4 -6 -26 -9 -50 -3 -24 -7 -53 -9 -65 -2 -12 -7
-43 -10 -70 -4 -27 -9 -65 -11 -84 -23 -181 -24 -622 -1 -771 3 -13 7 -51 11
-84 14 -129 37 -260 67 -385 11 -47 22 -96 24 -109 3 -13 9 -32 14 -42 17 -32
11 -50 -56 -168 -37 -64 -78 -136 -92 -161 -13 -25 -28 -49 -32 -55 -7 -8
-186 -319 -257 -445 -11 -19 -40 -69 -65 -110 -24 -41 -47 -82 -51 -90 -4 -8
-15 -28 -26 -45 -17 -28 -163 -280 -379 -655 -52 -91 -144 -250 -205 -355 -60
-104 -160 -278 -222 -386 -62 -107 -123 -211 -134 -230 -12 -19 -21 -38 -21
-44 0 -7 1723 -9 5152 -8 2834 1 5156 2 5159 2 4 1 -115 211 -263 468 -149
258 -279 484 -290 503 -11 19 -37 64 -58 100 -21 36 -47 81 -57 100 -11 19
-103 179 -205 355 -102 176 -195 336 -205 355 -11 19 -69 118 -128 220 -59
102 -117 203 -130 225 -12 22 -66 115 -119 208 l-97 168 35 137 c32 129 68
324 81 437 3 28 8 59 10 70 17 82 24 499 11 675 -6 84 -21 227 -31 285 -39
244 -126 588 -185 730 -4 11 -27 67 -50 125 -110 272 -239 508 -424 770 -33
47 -65 90 -71 96 -5 6 -19 23 -30 38 -23 32 -29 39 -117 142 -89 104 -320 331
-433 425 -283 236 -657 459 -1000 597 -149 60 -413 145 -485 157 -11 1 -120
165 -120 180 0 2 -36 63 -79 138 -43 74 -90 155 -104 180 -15 25 -66 115 -115
199 -49 84 -151 261 -227 393 -127 220 -265 457 -269 462 -1 2 -58 -95 -127
-214z m141 -402 c0 -5 57 -107 127 -227 69 -121 180 -311 245 -423 l118 -203
-83 7 c-213 19 -277 21 -487 19 -124 -2 -234 -5 -245 -7 -11 -3 -59 -8 -107
-12 l-88 -7 59 98 c32 55 136 234 231 399 95 165 181 315 192 333 19 30 38 42
38 23z m-165 -1752 l0 -612 -35 -3 c-66 -5 -195 -18 -200 -19 -3 -1 -32 -5
-65 -10 -33 -5 -62 -9 -65 -10 -3 -1 -25 -5 -50 -9 -315 -55 -715 -212 -1012
-398 -43 -26 -80 -48 -83 -48 -3 0 12 28 33 63 34 54 128 217 429 740 40 70
84 144 96 165 13 20 26 44 30 52 3 8 89 157 189 330 l183 315 60 12 c78 16
120 23 175 29 25 3 56 7 70 9 14 3 68 7 120 11 52 3 97 8 99 10 23 21 26 -50
26 -627z m549 605 c151 -19 176 -23 239 -35 68 -14 50 10 222 -289 145 -251
443 -767 683 -1182 66 -115 119 -208 117 -208 -2 0 -52 30 -112 66 -270 164
-541 276 -864 354 -150 37 -317 61 -491 72 -21 1 -39 4 -39 7 -1 4 -2 282 -3
619 l-1 613 75 -2 c41 -1 120 -8 174 -15z m-1517 -171 c-30 -53 -337 -584
-487 -843 -106 -184 -233 -403 -281 -486 -48 -83 -96 -166 -107 -185 -10 -19
-62 -108 -114 -199 -53 -91 -105 -181 -115 -200 -11 -19 -49 -85 -85 -146 -36
-61 -68 -117 -71 -125 -4 -8 -11 -21 -17 -29 -13 -20 -196 -333 -228 -390 -14
-25 -116 -204 -228 -398 -112 -193 -204 -354 -204 -357 0 -3 -5 -11 -11 -18
-11 -13 -230 -391 -283 -489 -17 -31 -32 -55 -33 -54 -4 4 -31 155 -38 211 -3
22 -7 58 -10 80 -7 59 -19 288 -19 380 0 185 23 439 54 600 5 28 12 64 15 80
13 79 69 287 110 410 227 676 661 1268 1238 1688 253 185 515 328 802 438 104
40 119 44 112 32z m2393 -50 c432 -169 840 -440 1179 -783 409 -414 710 -929
866 -1480 27 -96 70 -285 80 -345 38 -251 48 -375 49 -585 0 -125 -10 -341
-18 -386 -2 -10 -7 -50 -12 -89 -4 -38 -8 -72 -9 -75 -1 -3 -5 -29 -10 -58 -4
-29 -11 -54 -14 -57 -6 -3 -95 146 -351 590 -28 50 -56 97 -61 105 -26 43
-129 222 -129 225 0 2 -34 61 -75 130 -41 70 -75 128 -75 130 0 2 -22 41 -49
87 -199 342 -266 457 -281 483 -9 17 -52 91 -95 165 -43 74 -88 153 -100 175
-13 22 -60 103 -105 180 -79 135 -100 171 -157 273 -14 26 -72 126 -128 222
-56 96 -120 207 -142 245 -22 39 -73 126 -113 195 -40 69 -84 145 -98 170 -58
104 -216 378 -242 420 -15 25 -37 62 -50 84 l-23 38 24 -7 c13 -4 76 -27 139
-52z m-855 -1327 c17 -3 46 -8 65 -11 143 -24 365 -89 535 -158 103 -42 290
-135 337 -168 14 -11 29 -19 33 -19 12 0 208 -137 295 -207 185 -147 454 -444
558 -617 l34 -55 -50 -73 c-140 -207 -366 -454 -552 -601 -255 -203 -574 -373
-876 -466 -55 -17 -109 -33 -120 -35 -10 -2 -46 -11 -79 -19 -107 -27 -328
-59 -425 -61 l-25 -1 0 1255 c0 1056 2 1256 13 1261 13 4 182 -12 257 -25z
m-571 -1228 c-1 -689 -2 -1256 -3 -1260 0 -4 -20 -5 -43 -3 -24 3 -68 7 -98
10 -30 3 -66 7 -80 9 -14 3 -43 7 -65 11 -145 21 -372 84 -539 149 -243 95
-481 232 -696 402 -125 99 -353 333 -447 459 -46 61 -86 115 -90 120 -5 6 -21
30 -36 54 l-29 44 65 96 c36 53 74 106 84 117 10 12 32 39 48 60 252 323 645
617 1040 781 194 80 432 152 560 169 28 3 52 7 55 9 3 2 34 6 70 10 36 4 66 8
68 9 1 2 33 4 70 5 l67 2 -1 -1253z m-2163 -467 c245 -308 602 -598 959 -776
118 -59 240 -115 260 -119 3 -1 10 -4 15 -7 13 -8 211 -72 300 -98 75 -21 244
-57 310 -65 22 -3 49 -8 61 -10 20 -4 142 -17 209 -22 17 -1 35 -2 40 -3 7 -1
10 -424 9 -1258 -1 -692 -2 -1261 -3 -1265 -1 -9 -77 -3 -221 17 -137 20 -148
22 -265 51 -55 14 -107 27 -115 29 -8 2 -55 18 -105 34 -387 133 -727 345
-1019 635 -235 233 -373 422 -516 705 -123 244 -229 576 -255 802 -3 26 -8 57
-10 69 -27 141 -22 550 9 730 43 246 102 453 182 643 l29 68 22 -28 c12 -15
59 -75 104 -132z m4800 52 c39 -100 86 -237 94 -273 2 -8 11 -40 19 -72 17
-62 20 -79 40 -188 13 -71 17 -98 32 -230 15 -129 9 -450 -9 -570 -3 -19 -9
-55 -12 -80 -24 -172 -87 -402 -162 -589 -285 -718 -888 -1290 -1618 -1538
-195 -66 -393 -110 -570 -128 -33 -3 -79 -8 -102 -11 -24 -2 -44 -1 -44 3 -1
4 -2 574 -3 1266 -1 1251 -1 1257 19 1258 11 0 27 2 35 3 8 2 51 6 95 10 103
9 131 13 234 32 47 9 97 18 110 21 14 2 28 6 32 8 4 3 24 7 45 11 116 18 476
154 654 247 398 209 767 524 1023 875 21 28 40 52 42 52 2 0 22 -48 46 -107z
m-5464 -970 c-1 -242 8 -347 52 -607 14 -80 56 -242 93 -355 56 -175 186 -468
226 -513 8 -10 12 -18 9 -18 -10 0 128 -215 204 -317 122 -164 312 -369 448
-483 30 -25 59 -50 65 -55 91 -86 514 -355 557 -355 7 0 9 -3 6 -7 -9 -8
-3317 -10 -3317 -1 0 4 15 33 34 65 18 32 45 78 58 103 14 25 49 86 78 135 29
50 60 104 70 120 9 17 85 147 167 290 83 143 160 276 171 295 10 19 86 150
167 290 81 140 156 269 165 285 43 75 215 373 288 500 45 77 166 287 269 467
104 180 189 328 189 328 1 0 1 -75 1 -167z m6023 52 c0 -2 21 -38 46 -81 62
-105 341 -588 372 -644 13 -25 28 -49 32 -55 6 -7 529 -914 670 -1160 10 -16
41 -70 70 -120 29 -49 62 -108 75 -130 12 -22 91 -159 175 -303 83 -145 149
-266 146 -269 -4 -5 -3247 -8 -3301 -4 -5 1 37 27 95 60 280 155 477 305 702
533 444 451 737 1038 823 1653 22 158 29 258 29 446 l1 187 32 -55 c18 -30 33
-56 33 -58z"/>
<path d="M7573 723 l2 -467 53 -1 52 -1 0 300 0 300 155 -220 c86 -120 163
-230 173 -243 l18 -24 164 236 c91 130 167 237 170 237 3 0 5 -129 5 -286 0
-157 2 -289 5 -293 3 -4 26 -7 53 -7 l47 0 1 61 c0 80 1 778 0 834 l-1 44
-222 -318 -221 -318 -21 28 c-12 16 -96 134 -188 264 -92 130 -171 241 -176
247 -5 5 -22 29 -37 52 -15 23 -29 42 -31 42 -2 0 -2 -210 -1 -467z"/>
<path d="M4190 1085 c-23 -49 -85 -182 -137 -295 -53 -113 -114 -243 -136
-290 -68 -144 -107 -232 -107 -240 0 -10 113 -5 118 6 2 5 24 52 50 104 l47
95 199 0 200 0 28 -60 c75 -160 67 -150 126 -150 49 -1 53 1 49 20 -3 11 -42
103 -87 205 -45 102 -120 273 -167 380 -47 107 -98 222 -114 255 l-27 60 -42
-90z m105 -320 c32 -71 64 -144 71 -161 l13 -32 -149 0 c-103 1 -150 4 -150
12 0 6 19 52 43 101 24 50 56 120 72 157 17 36 33 63 36 60 4 -4 33 -65 64
-137z"/>
<path d="M9996 1098 c-19 -40 -69 -147 -111 -238 -43 -91 -91 -194 -107 -230
-17 -36 -61 -132 -99 -213 -38 -81 -69 -152 -69 -156 0 -4 25 -7 56 -6 64 2
60 -2 110 113 18 40 37 78 43 85 12 16 396 17 409 2 5 -6 27 -53 51 -105 l42
-95 54 0 c33 0 55 4 55 10 0 10 -22 62 -115 270 -118 268 -265 607 -265 614 0
6 -5 13 -10 16 -6 4 -25 -25 -44 -67z m99 -333 c32 -71 64 -144 71 -162 l14
-32 -150 1 c-103 1 -150 4 -150 12 0 6 20 52 43 101 24 50 56 120 72 157 17
36 33 63 36 60 4 -4 33 -65 64 -137z"/>
<path d="M405 1125 c-87 -26 -164 -87 -191 -151 -63 -151 54 -302 256 -329
156 -21 213 -43 243 -93 27 -47 22 -87 -16 -128 -67 -74 -209 -92 -306 -38
-59 31 -82 62 -84 110 -1 19 -6 34 -10 34 -21 0 -97 -54 -97 -68 1 -34 38 -98
75 -131 195 -171 555 -69 562 158 4 141 -103 232 -301 256 -92 11 -140 26
-173 51 -38 29 -63 72 -58 100 2 10 4 22 4 26 2 16 55 68 84 84 19 10 65 18
112 21 73 4 85 2 135 -24 59 -30 88 -68 92 -120 l2 -31 53 26 c51 25 53 28 47
57 -19 91 -91 156 -209 190 -61 18 -161 18 -220 0z"/>
<path d="M2024 693 l1 -438 53 -1 52 0 0 193 0 193 220 0 221 0 -1 -172 c0
-95 -1 -182 0 -193 0 -19 6 -21 52 -20 l53 0 0 438 0 437 -52 0 -53 0 0 -190
0 -190 -27 0 c-39 -1 -374 -1 -395 0 -17 0 -18 16 -18 190 l0 190 -54 0 -53 0
1 -437z"/>
<path d="M5770 692 l0 -439 53 1 52 2 1 383 1 384 127 0 c130 -1 166 -8 218
-46 30 -22 46 -55 52 -105 5 -45 -39 -103 -95 -127 -41 -17 -68 -19 -262 -24
l-29 -1 43 -52 c24 -29 46 -55 49 -58 3 -3 43 -52 90 -110 47 -58 111 -136
143 -175 l59 -70 69 0 c38 0 69 2 69 5 0 3 -13 19 -28 35 -37 41 -262 314
-262 319 0 2 16 6 36 9 50 8 114 41 154 79 134 132 68 356 -122 413 -38 11
-100 15 -235 15 l-183 0 0 -438z"/>
</g>
</svg>
